<?xml version="1.0" standalone="no"?>
<!DOCTYPE svg PUBLIC "-//W3C//DTD SVG 20010904//EN"
 "http://www.w3.org/TR/2001/REC-SVG-20010904/DTD/svg10.dtd">
<svg version="1.0" xmlns="http://www.w3.org/2000/svg"
 width="1320.000000pt" height="1320.000000pt" viewBox="0 0 1320.000000 1320.000000"
 preserveAspectRatio="xMidYMid meet">
<metadata>
Created by potrace 1.11, written by Peter Selinger 2001-2013
</metadata>
<g transform="translate(0.000000,1320.000000) scale(0.100000,-0.100000)"
fill="#000000" stroke="none">
<path d="M0 10380 l0 -620 3060 0 3060 0 0 -1510 0 -1510 -653 0 c-548 0 -656
-2 -673 -14 -17 -13 -19 -27 -19 -161 0 -169 3 -175 88 -175 l49 0 -6 -37 c-3
-21 -17 -182 -31 -358 -14 -176 -29 -356 -35 -400 -5 -44 -16 -168 -25 -275
-8 -107 -19 -226 -25 -265 -5 -38 -14 -133 -20 -210 -6 -77 -20 -237 -31 -355
-59 -643 -62 -688 -66 -1028 l-4 -342 -165 0 -166 0 -29 -29 -29 -29 0 -437 0
-437 29 -29 29 -29 531 0 531 0 0 -162 c0 -97 12 -303 31 -515 29 -336 32
-356 55 -391 14 -20 33 -41 42 -47 27 -16 369 -18 427 -3 45 12 52 18 72 58
19 39 25 87 48 375 14 182 25 408 25 503 l0 172 620 0 620 0 0 -164 c0 -100
12 -299 30 -507 35 -393 42 -422 108 -436 48 -10 389 -10 424 0 17 4 38 23 53
46 23 37 26 62 55 386 19 217 30 410 30 516 l0 168 540 3 539 3 23 23 23 23 0
444 0 444 -23 23 c-21 22 -31 23 -197 26 l-175 3 0 316 c0 174 -5 355 -10 402
-6 47 -22 230 -35 406 -14 176 -35 419 -45 540 -11 121 -29 324 -40 450 -11
127 -24 266 -30 310 -5 44 -19 195 -30 334 -12 140 -27 313 -34 383 l-12 128
47 0 c31 0 55 6 70 19 23 19 24 24 24 156 0 132 -1 137 -24 156 -22 18 -48 19
-657 19 l-634 0 0 1490 c0 1255 -2 1496 -14 1523 -8 18 -268 285 -612 629
-513 511 -605 598 -639 607 -28 8 -937 11 -3067 11 l-3028 0 0 -620z"/>
</g>
</svg>
